G04 (created by PCBNEW (2013-07-07 BZR 4022)-stable) date 6/10/2015 11:43:32 PM*
%MOIN*%
G04 Gerber Fmt 3.4, Leading zero omitted, Abs format*
%FSLAX34Y34*%
G01*
G70*
G90*
G04 APERTURE LIST*
%ADD10C,0.00590551*%
%ADD11R,0.0394X0.0315*%
%ADD12R,0.0204724X0.011811*%
%ADD13R,0.045X0.025*%
%ADD14R,0.025X0.045*%
%ADD15R,0.04X0.07*%
%ADD16R,0.0472X0.0472*%
%ADD17R,0.122047X0.0393701*%
%ADD18O,0.1181X0.0335*%
%ADD19O,0.0335X0.1181*%
%ADD20R,0.06X0.08*%
%ADD21C,0.035*%
%ADD22C,0.006*%
%ADD23C,0.01*%
G04 APERTURE END LIST*
G54D10*
G54D11*
X58817Y-39500D03*
X59683Y-39125D03*
X59683Y-39875D03*
G54D12*
X61098Y-31303D03*
X61098Y-31500D03*
X61098Y-31696D03*
X61401Y-31696D03*
X61401Y-31500D03*
X61401Y-31303D03*
G54D13*
X59250Y-33800D03*
X59250Y-33200D03*
G54D14*
X54300Y-29500D03*
X53700Y-29500D03*
G54D13*
X59250Y-37200D03*
X59250Y-37800D03*
X62250Y-31200D03*
X62250Y-31800D03*
G54D14*
X60950Y-32500D03*
X61550Y-32500D03*
X61550Y-30500D03*
X60950Y-30500D03*
G54D15*
X60750Y-34750D03*
X62250Y-34750D03*
X60750Y-35750D03*
X62250Y-35750D03*
X60750Y-36750D03*
X62250Y-36750D03*
X60750Y-37750D03*
X62250Y-37750D03*
X60750Y-38750D03*
X62250Y-38750D03*
G54D16*
X57087Y-39500D03*
X57913Y-39500D03*
G54D17*
X59251Y-29324D03*
X59251Y-26175D03*
X55748Y-29324D03*
X55748Y-26175D03*
G54D18*
X57872Y-37709D03*
X57872Y-37217D03*
X57872Y-36724D03*
X57872Y-36232D03*
X57872Y-35740D03*
X57872Y-35248D03*
X57872Y-34756D03*
X57872Y-34264D03*
X57872Y-33772D03*
X57872Y-33280D03*
X57872Y-32787D03*
X57872Y-32295D03*
X57872Y-31803D03*
G54D19*
X57222Y-30937D03*
X56730Y-30937D03*
X56238Y-30937D03*
X55746Y-30937D03*
X55254Y-30937D03*
X54762Y-30937D03*
X54270Y-30937D03*
X53778Y-30937D03*
G54D18*
X53128Y-31803D03*
X53128Y-32295D03*
X53128Y-32787D03*
X53128Y-33280D03*
X53128Y-33772D03*
X53128Y-34264D03*
X53128Y-34756D03*
X53128Y-35248D03*
X53128Y-35740D03*
G54D14*
X55450Y-39000D03*
X56050Y-39000D03*
X55450Y-40000D03*
X56050Y-40000D03*
G54D20*
X60600Y-33450D03*
X61900Y-33450D03*
G54D21*
X58250Y-29650D03*
X60000Y-36250D03*
X58750Y-36250D03*
X61500Y-35750D03*
X58750Y-35750D03*
X58850Y-34750D03*
X62200Y-32500D03*
X58850Y-34300D03*
X61250Y-31000D03*
X60100Y-37750D03*
X55950Y-35250D03*
X55400Y-32050D03*
X54750Y-28500D03*
G54D22*
X60950Y-32500D02*
X60950Y-33100D01*
X60950Y-33100D02*
X60600Y-33450D01*
X60500Y-31900D02*
X58250Y-29650D01*
X60500Y-31900D02*
X60500Y-32050D01*
X60500Y-32050D02*
X60950Y-32500D01*
X60703Y-31696D02*
X61098Y-31696D01*
X60500Y-31900D02*
X60703Y-31696D01*
X61098Y-31696D02*
X61098Y-31851D01*
X60950Y-32000D02*
X60950Y-32500D01*
X61098Y-31851D02*
X60950Y-32000D01*
X57872Y-36232D02*
X58732Y-36232D01*
X60500Y-35750D02*
X60750Y-35750D01*
X60000Y-36250D02*
X60500Y-35750D01*
X58732Y-36232D02*
X58750Y-36250D01*
X57872Y-35740D02*
X58740Y-35740D01*
X61500Y-35750D02*
X62250Y-35750D01*
X58740Y-35740D02*
X58750Y-35750D01*
X61401Y-31500D02*
X61750Y-31500D01*
X58844Y-34756D02*
X57872Y-34756D01*
X58850Y-34750D02*
X58844Y-34756D01*
X61750Y-32050D02*
X62200Y-32500D01*
X61750Y-31500D02*
X61750Y-32050D01*
X61098Y-31303D02*
X61098Y-31101D01*
X58814Y-34264D02*
X57872Y-34264D01*
X58850Y-34300D02*
X58814Y-34264D01*
X61200Y-31000D02*
X61250Y-31000D01*
X61098Y-31101D02*
X61200Y-31000D01*
X53128Y-35248D02*
X55948Y-35248D01*
X60100Y-37750D02*
X60750Y-37750D01*
X55948Y-35248D02*
X55950Y-35250D01*
X54800Y-39000D02*
X54800Y-39350D01*
X54253Y-31803D02*
X56350Y-33900D01*
X56350Y-33900D02*
X56350Y-37450D01*
X54825Y-38975D02*
X54800Y-39000D01*
X56350Y-37450D02*
X54825Y-38975D01*
X53128Y-31803D02*
X54253Y-31803D01*
X54800Y-39350D02*
X55450Y-40000D01*
X59251Y-26175D02*
X57074Y-26175D01*
X54762Y-31412D02*
X54762Y-30937D01*
X55400Y-32050D02*
X54762Y-31412D01*
X57074Y-26175D02*
X54750Y-28500D01*
X59683Y-39875D02*
X59683Y-39833D01*
X59250Y-39400D02*
X59250Y-37800D01*
X59683Y-39833D02*
X59250Y-39400D01*
X53128Y-35740D02*
X52260Y-35740D01*
X52813Y-30937D02*
X53778Y-30937D01*
X52250Y-31500D02*
X52813Y-30937D01*
X52250Y-35730D02*
X52250Y-31500D01*
X52260Y-35740D02*
X52250Y-35730D01*
X61098Y-31500D02*
X60800Y-31500D01*
X60600Y-30500D02*
X60950Y-30500D01*
X60600Y-31500D02*
X60600Y-30500D01*
X60800Y-31500D02*
X60600Y-31500D01*
X57087Y-39500D02*
X56550Y-39500D01*
X56550Y-39500D02*
X56050Y-39000D01*
X57913Y-39500D02*
X58817Y-39500D01*
X59683Y-39125D02*
X60175Y-39125D01*
X56500Y-40450D02*
X56050Y-40000D01*
X60150Y-40450D02*
X56500Y-40450D01*
X60200Y-40400D02*
X60150Y-40450D01*
X60200Y-39150D02*
X60200Y-40400D01*
X60175Y-39125D02*
X60200Y-39150D01*
X56700Y-36724D02*
X56700Y-37750D01*
X56700Y-37750D02*
X55450Y-39000D01*
X56622Y-33772D02*
X56622Y-36650D01*
X56622Y-36650D02*
X56622Y-36678D01*
X56668Y-36724D02*
X56700Y-36724D01*
X56700Y-36724D02*
X57872Y-36724D01*
X56622Y-36678D02*
X56668Y-36724D01*
X57872Y-37217D02*
X59233Y-37217D01*
X59233Y-37217D02*
X59250Y-37200D01*
X59250Y-33800D02*
X59250Y-37200D01*
X57872Y-33772D02*
X59222Y-33772D01*
X59222Y-33772D02*
X59250Y-33800D01*
X59251Y-29324D02*
X57925Y-29324D01*
X57100Y-30150D02*
X54300Y-30150D01*
X57925Y-29324D02*
X57100Y-30150D01*
X59251Y-29324D02*
X60374Y-29324D01*
X60374Y-29324D02*
X61550Y-30500D01*
X54300Y-29500D02*
X54300Y-30150D01*
X54300Y-30150D02*
X54300Y-30907D01*
X54300Y-30907D02*
X54270Y-30937D01*
X54270Y-30937D02*
X54270Y-31420D01*
X56622Y-33772D02*
X57872Y-33772D01*
X54270Y-31420D02*
X56622Y-33772D01*
X62250Y-31200D02*
X62650Y-31200D01*
X62700Y-34300D02*
X62250Y-34750D01*
X62700Y-31250D02*
X62700Y-34300D01*
X62650Y-31200D02*
X62700Y-31250D01*
X61800Y-31200D02*
X62250Y-31200D01*
X61800Y-31200D02*
X61800Y-30750D01*
X61696Y-31303D02*
X61800Y-31200D01*
X61401Y-31303D02*
X61696Y-31303D01*
X61800Y-30750D02*
X61550Y-30500D01*
G54D10*
G36*
X59740Y-39925D02*
X59733Y-39925D01*
X59733Y-39932D01*
X59633Y-39932D01*
X59633Y-39925D01*
X59298Y-39925D01*
X59236Y-39987D01*
X59235Y-40082D01*
X59272Y-40170D01*
X56615Y-40170D01*
X56425Y-39979D01*
X56425Y-39746D01*
X56442Y-39758D01*
X56442Y-39758D01*
X56460Y-39762D01*
X56550Y-39780D01*
X56600Y-39780D01*
X56600Y-39785D01*
X56638Y-39877D01*
X56709Y-39947D01*
X56801Y-39985D01*
X56900Y-39986D01*
X57372Y-39986D01*
X57464Y-39948D01*
X57500Y-39912D01*
X57535Y-39947D01*
X57627Y-39985D01*
X57726Y-39986D01*
X58198Y-39986D01*
X58290Y-39948D01*
X58360Y-39877D01*
X58398Y-39785D01*
X58398Y-39780D01*
X58400Y-39780D01*
X58407Y-39798D01*
X58478Y-39869D01*
X58570Y-39907D01*
X58669Y-39907D01*
X59063Y-39907D01*
X59155Y-39869D01*
X59225Y-39799D01*
X59239Y-39766D01*
X59298Y-39825D01*
X59633Y-39825D01*
X59633Y-39817D01*
X59733Y-39817D01*
X59733Y-39825D01*
X59740Y-39825D01*
X59740Y-39925D01*
X59740Y-39925D01*
G37*
G54D23*
X59740Y-39925D02*
X59733Y-39925D01*
X59733Y-39932D01*
X59633Y-39932D01*
X59633Y-39925D01*
X59298Y-39925D01*
X59236Y-39987D01*
X59235Y-40082D01*
X59272Y-40170D01*
X56615Y-40170D01*
X56425Y-39979D01*
X56425Y-39746D01*
X56442Y-39758D01*
X56442Y-39758D01*
X56460Y-39762D01*
X56550Y-39780D01*
X56600Y-39780D01*
X56600Y-39785D01*
X56638Y-39877D01*
X56709Y-39947D01*
X56801Y-39985D01*
X56900Y-39986D01*
X57372Y-39986D01*
X57464Y-39948D01*
X57500Y-39912D01*
X57535Y-39947D01*
X57627Y-39985D01*
X57726Y-39986D01*
X58198Y-39986D01*
X58290Y-39948D01*
X58360Y-39877D01*
X58398Y-39785D01*
X58398Y-39780D01*
X58400Y-39780D01*
X58407Y-39798D01*
X58478Y-39869D01*
X58570Y-39907D01*
X58669Y-39907D01*
X59063Y-39907D01*
X59155Y-39869D01*
X59225Y-39799D01*
X59239Y-39766D01*
X59298Y-39825D01*
X59633Y-39825D01*
X59633Y-39817D01*
X59733Y-39817D01*
X59733Y-39825D01*
X59740Y-39825D01*
X59740Y-39925D01*
G54D10*
G36*
X60346Y-38249D02*
X60338Y-38258D01*
X60300Y-38350D01*
X60299Y-38449D01*
X60299Y-38878D01*
X60282Y-38866D01*
X60175Y-38845D01*
X60099Y-38845D01*
X60092Y-38826D01*
X60021Y-38755D01*
X59929Y-38717D01*
X59830Y-38717D01*
X59436Y-38717D01*
X59344Y-38755D01*
X59274Y-38825D01*
X59236Y-38917D01*
X59235Y-39017D01*
X59235Y-39225D01*
X59226Y-39201D01*
X59200Y-39174D01*
X59200Y-38112D01*
X59200Y-37850D01*
X58837Y-37850D01*
X58775Y-37912D01*
X58774Y-37974D01*
X58812Y-38066D01*
X58883Y-38136D01*
X58975Y-38174D01*
X59074Y-38175D01*
X59137Y-38175D01*
X59200Y-38112D01*
X59200Y-39174D01*
X59155Y-39130D01*
X59063Y-39092D01*
X58964Y-39092D01*
X58696Y-39092D01*
X58696Y-37823D01*
X58646Y-37759D01*
X57922Y-37759D01*
X57922Y-38126D01*
X58345Y-38126D01*
X58500Y-38075D01*
X58625Y-37968D01*
X58696Y-37823D01*
X58696Y-39092D01*
X58570Y-39092D01*
X58478Y-39130D01*
X58408Y-39200D01*
X58400Y-39220D01*
X58399Y-39220D01*
X58399Y-39214D01*
X58361Y-39122D01*
X58290Y-39052D01*
X58198Y-39014D01*
X58099Y-39013D01*
X57822Y-39013D01*
X57822Y-38126D01*
X57822Y-37759D01*
X57097Y-37759D01*
X57047Y-37823D01*
X57118Y-37968D01*
X57243Y-38075D01*
X57399Y-38126D01*
X57822Y-38126D01*
X57822Y-39013D01*
X57627Y-39013D01*
X57535Y-39051D01*
X57499Y-39087D01*
X57464Y-39052D01*
X57372Y-39014D01*
X57273Y-39013D01*
X56801Y-39013D01*
X56709Y-39051D01*
X56639Y-39122D01*
X56618Y-39172D01*
X56425Y-38979D01*
X56425Y-38725D01*
X56387Y-38633D01*
X56316Y-38563D01*
X56300Y-38556D01*
X56300Y-38545D01*
X56897Y-37947D01*
X56958Y-37857D01*
X56958Y-37857D01*
X56962Y-37839D01*
X56979Y-37750D01*
X56980Y-37750D01*
X56980Y-37004D01*
X57082Y-37004D01*
X57046Y-37057D01*
X57015Y-37217D01*
X57046Y-37376D01*
X57108Y-37469D01*
X57047Y-37594D01*
X57097Y-37659D01*
X57822Y-37659D01*
X57822Y-37651D01*
X57922Y-37651D01*
X57922Y-37659D01*
X58646Y-37659D01*
X58696Y-37594D01*
X58648Y-37497D01*
X58843Y-37497D01*
X58846Y-37500D01*
X58812Y-37533D01*
X58774Y-37625D01*
X58775Y-37687D01*
X58837Y-37750D01*
X59200Y-37750D01*
X59200Y-37742D01*
X59300Y-37742D01*
X59300Y-37750D01*
X59307Y-37750D01*
X59307Y-37850D01*
X59300Y-37850D01*
X59300Y-38112D01*
X59362Y-38175D01*
X59425Y-38175D01*
X59524Y-38174D01*
X59616Y-38136D01*
X59687Y-38066D01*
X59725Y-37974D01*
X59725Y-37955D01*
X59739Y-37990D01*
X59858Y-38110D01*
X60015Y-38174D01*
X60184Y-38175D01*
X60299Y-38127D01*
X60299Y-38149D01*
X60337Y-38241D01*
X60346Y-38249D01*
X60346Y-38249D01*
G37*
G54D23*
X60346Y-38249D02*
X60338Y-38258D01*
X60300Y-38350D01*
X60299Y-38449D01*
X60299Y-38878D01*
X60282Y-38866D01*
X60175Y-38845D01*
X60099Y-38845D01*
X60092Y-38826D01*
X60021Y-38755D01*
X59929Y-38717D01*
X59830Y-38717D01*
X59436Y-38717D01*
X59344Y-38755D01*
X59274Y-38825D01*
X59236Y-38917D01*
X59235Y-39017D01*
X59235Y-39225D01*
X59226Y-39201D01*
X59200Y-39174D01*
X59200Y-38112D01*
X59200Y-37850D01*
X58837Y-37850D01*
X58775Y-37912D01*
X58774Y-37974D01*
X58812Y-38066D01*
X58883Y-38136D01*
X58975Y-38174D01*
X59074Y-38175D01*
X59137Y-38175D01*
X59200Y-38112D01*
X59200Y-39174D01*
X59155Y-39130D01*
X59063Y-39092D01*
X58964Y-39092D01*
X58696Y-39092D01*
X58696Y-37823D01*
X58646Y-37759D01*
X57922Y-37759D01*
X57922Y-38126D01*
X58345Y-38126D01*
X58500Y-38075D01*
X58625Y-37968D01*
X58696Y-37823D01*
X58696Y-39092D01*
X58570Y-39092D01*
X58478Y-39130D01*
X58408Y-39200D01*
X58400Y-39220D01*
X58399Y-39220D01*
X58399Y-39214D01*
X58361Y-39122D01*
X58290Y-39052D01*
X58198Y-39014D01*
X58099Y-39013D01*
X57822Y-39013D01*
X57822Y-38126D01*
X57822Y-37759D01*
X57097Y-37759D01*
X57047Y-37823D01*
X57118Y-37968D01*
X57243Y-38075D01*
X57399Y-38126D01*
X57822Y-38126D01*
X57822Y-39013D01*
X57627Y-39013D01*
X57535Y-39051D01*
X57499Y-39087D01*
X57464Y-39052D01*
X57372Y-39014D01*
X57273Y-39013D01*
X56801Y-39013D01*
X56709Y-39051D01*
X56639Y-39122D01*
X56618Y-39172D01*
X56425Y-38979D01*
X56425Y-38725D01*
X56387Y-38633D01*
X56316Y-38563D01*
X56300Y-38556D01*
X56300Y-38545D01*
X56897Y-37947D01*
X56958Y-37857D01*
X56958Y-37857D01*
X56962Y-37839D01*
X56979Y-37750D01*
X56980Y-37750D01*
X56980Y-37004D01*
X57082Y-37004D01*
X57046Y-37057D01*
X57015Y-37217D01*
X57046Y-37376D01*
X57108Y-37469D01*
X57047Y-37594D01*
X57097Y-37659D01*
X57822Y-37659D01*
X57822Y-37651D01*
X57922Y-37651D01*
X57922Y-37659D01*
X58646Y-37659D01*
X58696Y-37594D01*
X58648Y-37497D01*
X58843Y-37497D01*
X58846Y-37500D01*
X58812Y-37533D01*
X58774Y-37625D01*
X58775Y-37687D01*
X58837Y-37750D01*
X59200Y-37750D01*
X59200Y-37742D01*
X59300Y-37742D01*
X59300Y-37750D01*
X59307Y-37750D01*
X59307Y-37850D01*
X59300Y-37850D01*
X59300Y-38112D01*
X59362Y-38175D01*
X59425Y-38175D01*
X59524Y-38174D01*
X59616Y-38136D01*
X59687Y-38066D01*
X59725Y-37974D01*
X59725Y-37955D01*
X59739Y-37990D01*
X59858Y-38110D01*
X60015Y-38174D01*
X60184Y-38175D01*
X60299Y-38127D01*
X60299Y-38149D01*
X60337Y-38241D01*
X60346Y-38249D01*
G54D10*
G36*
X61607Y-32550D02*
X61600Y-32550D01*
X61600Y-32557D01*
X61500Y-32557D01*
X61500Y-32550D01*
X61492Y-32550D01*
X61492Y-32450D01*
X61500Y-32450D01*
X61500Y-32442D01*
X61600Y-32442D01*
X61600Y-32450D01*
X61607Y-32450D01*
X61607Y-32550D01*
X61607Y-32550D01*
G37*
G54D23*
X61607Y-32550D02*
X61600Y-32550D01*
X61600Y-32557D01*
X61500Y-32557D01*
X61500Y-32550D01*
X61492Y-32550D01*
X61492Y-32450D01*
X61500Y-32450D01*
X61500Y-32442D01*
X61600Y-32442D01*
X61600Y-32450D01*
X61607Y-32450D01*
X61607Y-32550D01*
G54D10*
G36*
X62307Y-31850D02*
X62300Y-31850D01*
X62300Y-31857D01*
X62200Y-31857D01*
X62200Y-31850D01*
X62192Y-31850D01*
X62192Y-31750D01*
X62200Y-31750D01*
X62200Y-31742D01*
X62300Y-31742D01*
X62300Y-31750D01*
X62307Y-31750D01*
X62307Y-31850D01*
X62307Y-31850D01*
G37*
G54D23*
X62307Y-31850D02*
X62300Y-31850D01*
X62300Y-31857D01*
X62200Y-31857D01*
X62200Y-31850D01*
X62192Y-31850D01*
X62192Y-31750D01*
X62200Y-31750D01*
X62200Y-31742D01*
X62300Y-31742D01*
X62300Y-31750D01*
X62307Y-31750D01*
X62307Y-31850D01*
G54D10*
G36*
X62420Y-34149D02*
X62400Y-34149D01*
X62000Y-34149D01*
X61908Y-34187D01*
X61850Y-34246D01*
X61850Y-34037D01*
X61850Y-33500D01*
X61412Y-33500D01*
X61350Y-33562D01*
X61349Y-33800D01*
X61350Y-33899D01*
X61388Y-33991D01*
X61458Y-34062D01*
X61550Y-34100D01*
X61787Y-34100D01*
X61850Y-34037D01*
X61850Y-34246D01*
X61838Y-34258D01*
X61800Y-34350D01*
X61799Y-34449D01*
X61799Y-35149D01*
X61837Y-35241D01*
X61846Y-35249D01*
X61838Y-35258D01*
X61800Y-35350D01*
X61799Y-35448D01*
X61741Y-35389D01*
X61584Y-35325D01*
X61415Y-35324D01*
X61259Y-35389D01*
X61200Y-35448D01*
X61200Y-35350D01*
X61162Y-35258D01*
X61153Y-35250D01*
X61162Y-35241D01*
X61200Y-35149D01*
X61200Y-34350D01*
X61162Y-34258D01*
X61091Y-34188D01*
X60999Y-34150D01*
X60900Y-34149D01*
X60862Y-34150D01*
X60800Y-34212D01*
X60800Y-34700D01*
X61137Y-34700D01*
X61200Y-34637D01*
X61200Y-34350D01*
X61200Y-35149D01*
X61200Y-34862D01*
X61137Y-34800D01*
X60800Y-34800D01*
X60800Y-34807D01*
X60700Y-34807D01*
X60700Y-34800D01*
X60700Y-34700D01*
X60700Y-34212D01*
X60637Y-34150D01*
X60599Y-34149D01*
X60500Y-34150D01*
X60408Y-34188D01*
X60337Y-34258D01*
X60299Y-34350D01*
X60300Y-34637D01*
X60362Y-34700D01*
X60700Y-34700D01*
X60700Y-34800D01*
X60362Y-34800D01*
X60300Y-34862D01*
X60299Y-35149D01*
X60337Y-35241D01*
X60346Y-35249D01*
X60338Y-35258D01*
X60300Y-35350D01*
X60299Y-35449D01*
X60299Y-35554D01*
X60028Y-35825D01*
X59915Y-35824D01*
X59759Y-35889D01*
X59639Y-36008D01*
X59575Y-36165D01*
X59574Y-36334D01*
X59639Y-36490D01*
X59758Y-36610D01*
X59915Y-36674D01*
X60084Y-36675D01*
X60240Y-36610D01*
X60299Y-36551D01*
X60299Y-37149D01*
X60337Y-37241D01*
X60346Y-37249D01*
X60338Y-37258D01*
X60300Y-37350D01*
X60300Y-37372D01*
X60184Y-37325D01*
X60015Y-37324D01*
X59859Y-37389D01*
X59739Y-37508D01*
X59708Y-37585D01*
X59687Y-37533D01*
X59653Y-37500D01*
X59686Y-37466D01*
X59724Y-37374D01*
X59725Y-37275D01*
X59725Y-37025D01*
X59687Y-36933D01*
X59616Y-36863D01*
X59530Y-36827D01*
X59530Y-34172D01*
X59616Y-34137D01*
X59686Y-34066D01*
X59724Y-33974D01*
X59725Y-33875D01*
X59725Y-33625D01*
X59687Y-33533D01*
X59653Y-33500D01*
X59687Y-33466D01*
X59725Y-33374D01*
X59725Y-33025D01*
X59687Y-32933D01*
X59616Y-32863D01*
X59524Y-32825D01*
X59425Y-32824D01*
X59362Y-32825D01*
X59300Y-32887D01*
X59300Y-33150D01*
X59662Y-33150D01*
X59725Y-33087D01*
X59725Y-33025D01*
X59725Y-33374D01*
X59725Y-33312D01*
X59662Y-33250D01*
X59300Y-33250D01*
X59300Y-33257D01*
X59200Y-33257D01*
X59200Y-33250D01*
X59200Y-33150D01*
X59200Y-32887D01*
X59137Y-32825D01*
X59074Y-32824D01*
X58975Y-32825D01*
X58883Y-32863D01*
X58812Y-32933D01*
X58774Y-33025D01*
X58775Y-33087D01*
X58837Y-33150D01*
X59200Y-33150D01*
X59200Y-33250D01*
X58837Y-33250D01*
X58775Y-33312D01*
X58774Y-33374D01*
X58812Y-33466D01*
X58838Y-33492D01*
X58648Y-33492D01*
X58696Y-33394D01*
X58646Y-33330D01*
X57922Y-33330D01*
X57922Y-33337D01*
X57822Y-33337D01*
X57822Y-33330D01*
X57097Y-33330D01*
X57047Y-33394D01*
X57095Y-33492D01*
X56737Y-33492D01*
X55648Y-32402D01*
X55760Y-32291D01*
X55824Y-32134D01*
X55825Y-31965D01*
X55760Y-31809D01*
X55744Y-31793D01*
X55746Y-31793D01*
X55905Y-31762D01*
X55992Y-31704D01*
X56078Y-31762D01*
X56238Y-31793D01*
X56397Y-31762D01*
X56484Y-31704D01*
X56570Y-31762D01*
X56730Y-31793D01*
X56889Y-31762D01*
X56976Y-31704D01*
X57027Y-31739D01*
X57015Y-31803D01*
X57046Y-31962D01*
X57104Y-32049D01*
X57046Y-32135D01*
X57015Y-32295D01*
X57046Y-32454D01*
X57104Y-32541D01*
X57046Y-32627D01*
X57015Y-32787D01*
X57046Y-32946D01*
X57108Y-33039D01*
X57047Y-33165D01*
X57097Y-33230D01*
X57822Y-33230D01*
X57822Y-33222D01*
X57922Y-33222D01*
X57922Y-33230D01*
X58646Y-33230D01*
X58696Y-33165D01*
X58635Y-33039D01*
X58697Y-32946D01*
X58728Y-32787D01*
X58697Y-32627D01*
X58639Y-32541D01*
X58697Y-32454D01*
X58728Y-32295D01*
X58697Y-32135D01*
X58639Y-32049D01*
X58697Y-31962D01*
X58728Y-31803D01*
X58697Y-31643D01*
X58606Y-31507D01*
X58471Y-31417D01*
X58311Y-31385D01*
X57637Y-31385D01*
X57639Y-31376D01*
X57639Y-30497D01*
X57607Y-30337D01*
X57517Y-30202D01*
X57473Y-30172D01*
X57850Y-29795D01*
X57889Y-29890D01*
X58008Y-30010D01*
X58165Y-30074D01*
X58279Y-30075D01*
X60220Y-32015D01*
X60220Y-32050D01*
X60241Y-32157D01*
X60302Y-32247D01*
X60574Y-32520D01*
X60574Y-32774D01*
X60585Y-32799D01*
X60250Y-32799D01*
X60158Y-32837D01*
X60088Y-32908D01*
X60050Y-33000D01*
X60049Y-33099D01*
X60049Y-33899D01*
X60087Y-33991D01*
X60158Y-34061D01*
X60250Y-34099D01*
X60349Y-34100D01*
X60949Y-34100D01*
X61041Y-34062D01*
X61111Y-33991D01*
X61149Y-33899D01*
X61150Y-33800D01*
X61150Y-33294D01*
X61150Y-33294D01*
X61188Y-33237D01*
X61208Y-33207D01*
X61208Y-33207D01*
X61229Y-33100D01*
X61230Y-33100D01*
X61230Y-32923D01*
X61250Y-32903D01*
X61283Y-32937D01*
X61362Y-32969D01*
X61350Y-33000D01*
X61349Y-33099D01*
X61350Y-33337D01*
X61412Y-33400D01*
X61850Y-33400D01*
X61850Y-33392D01*
X61950Y-33392D01*
X61950Y-33400D01*
X61957Y-33400D01*
X61957Y-33500D01*
X61950Y-33500D01*
X61950Y-34037D01*
X62012Y-34100D01*
X62249Y-34100D01*
X62341Y-34062D01*
X62411Y-33991D01*
X62420Y-33972D01*
X62420Y-34149D01*
X62420Y-34149D01*
G37*
G54D23*
X62420Y-34149D02*
X62400Y-34149D01*
X62000Y-34149D01*
X61908Y-34187D01*
X61850Y-34246D01*
X61850Y-34037D01*
X61850Y-33500D01*
X61412Y-33500D01*
X61350Y-33562D01*
X61349Y-33800D01*
X61350Y-33899D01*
X61388Y-33991D01*
X61458Y-34062D01*
X61550Y-34100D01*
X61787Y-34100D01*
X61850Y-34037D01*
X61850Y-34246D01*
X61838Y-34258D01*
X61800Y-34350D01*
X61799Y-34449D01*
X61799Y-35149D01*
X61837Y-35241D01*
X61846Y-35249D01*
X61838Y-35258D01*
X61800Y-35350D01*
X61799Y-35448D01*
X61741Y-35389D01*
X61584Y-35325D01*
X61415Y-35324D01*
X61259Y-35389D01*
X61200Y-35448D01*
X61200Y-35350D01*
X61162Y-35258D01*
X61153Y-35250D01*
X61162Y-35241D01*
X61200Y-35149D01*
X61200Y-34350D01*
X61162Y-34258D01*
X61091Y-34188D01*
X60999Y-34150D01*
X60900Y-34149D01*
X60862Y-34150D01*
X60800Y-34212D01*
X60800Y-34700D01*
X61137Y-34700D01*
X61200Y-34637D01*
X61200Y-34350D01*
X61200Y-35149D01*
X61200Y-34862D01*
X61137Y-34800D01*
X60800Y-34800D01*
X60800Y-34807D01*
X60700Y-34807D01*
X60700Y-34800D01*
X60700Y-34700D01*
X60700Y-34212D01*
X60637Y-34150D01*
X60599Y-34149D01*
X60500Y-34150D01*
X60408Y-34188D01*
X60337Y-34258D01*
X60299Y-34350D01*
X60300Y-34637D01*
X60362Y-34700D01*
X60700Y-34700D01*
X60700Y-34800D01*
X60362Y-34800D01*
X60300Y-34862D01*
X60299Y-35149D01*
X60337Y-35241D01*
X60346Y-35249D01*
X60338Y-35258D01*
X60300Y-35350D01*
X60299Y-35449D01*
X60299Y-35554D01*
X60028Y-35825D01*
X59915Y-35824D01*
X59759Y-35889D01*
X59639Y-36008D01*
X59575Y-36165D01*
X59574Y-36334D01*
X59639Y-36490D01*
X59758Y-36610D01*
X59915Y-36674D01*
X60084Y-36675D01*
X60240Y-36610D01*
X60299Y-36551D01*
X60299Y-37149D01*
X60337Y-37241D01*
X60346Y-37249D01*
X60338Y-37258D01*
X60300Y-37350D01*
X60300Y-37372D01*
X60184Y-37325D01*
X60015Y-37324D01*
X59859Y-37389D01*
X59739Y-37508D01*
X59708Y-37585D01*
X59687Y-37533D01*
X59653Y-37500D01*
X59686Y-37466D01*
X59724Y-37374D01*
X59725Y-37275D01*
X59725Y-37025D01*
X59687Y-36933D01*
X59616Y-36863D01*
X59530Y-36827D01*
X59530Y-34172D01*
X59616Y-34137D01*
X59686Y-34066D01*
X59724Y-33974D01*
X59725Y-33875D01*
X59725Y-33625D01*
X59687Y-33533D01*
X59653Y-33500D01*
X59687Y-33466D01*
X59725Y-33374D01*
X59725Y-33025D01*
X59687Y-32933D01*
X59616Y-32863D01*
X59524Y-32825D01*
X59425Y-32824D01*
X59362Y-32825D01*
X59300Y-32887D01*
X59300Y-33150D01*
X59662Y-33150D01*
X59725Y-33087D01*
X59725Y-33025D01*
X59725Y-33374D01*
X59725Y-33312D01*
X59662Y-33250D01*
X59300Y-33250D01*
X59300Y-33257D01*
X59200Y-33257D01*
X59200Y-33250D01*
X59200Y-33150D01*
X59200Y-32887D01*
X59137Y-32825D01*
X59074Y-32824D01*
X58975Y-32825D01*
X58883Y-32863D01*
X58812Y-32933D01*
X58774Y-33025D01*
X58775Y-33087D01*
X58837Y-33150D01*
X59200Y-33150D01*
X59200Y-33250D01*
X58837Y-33250D01*
X58775Y-33312D01*
X58774Y-33374D01*
X58812Y-33466D01*
X58838Y-33492D01*
X58648Y-33492D01*
X58696Y-33394D01*
X58646Y-33330D01*
X57922Y-33330D01*
X57922Y-33337D01*
X57822Y-33337D01*
X57822Y-33330D01*
X57097Y-33330D01*
X57047Y-33394D01*
X57095Y-33492D01*
X56737Y-33492D01*
X55648Y-32402D01*
X55760Y-32291D01*
X55824Y-32134D01*
X55825Y-31965D01*
X55760Y-31809D01*
X55744Y-31793D01*
X55746Y-31793D01*
X55905Y-31762D01*
X55992Y-31704D01*
X56078Y-31762D01*
X56238Y-31793D01*
X56397Y-31762D01*
X56484Y-31704D01*
X56570Y-31762D01*
X56730Y-31793D01*
X56889Y-31762D01*
X56976Y-31704D01*
X57027Y-31739D01*
X57015Y-31803D01*
X57046Y-31962D01*
X57104Y-32049D01*
X57046Y-32135D01*
X57015Y-32295D01*
X57046Y-32454D01*
X57104Y-32541D01*
X57046Y-32627D01*
X57015Y-32787D01*
X57046Y-32946D01*
X57108Y-33039D01*
X57047Y-33165D01*
X57097Y-33230D01*
X57822Y-33230D01*
X57822Y-33222D01*
X57922Y-33222D01*
X57922Y-33230D01*
X58646Y-33230D01*
X58696Y-33165D01*
X58635Y-33039D01*
X58697Y-32946D01*
X58728Y-32787D01*
X58697Y-32627D01*
X58639Y-32541D01*
X58697Y-32454D01*
X58728Y-32295D01*
X58697Y-32135D01*
X58639Y-32049D01*
X58697Y-31962D01*
X58728Y-31803D01*
X58697Y-31643D01*
X58606Y-31507D01*
X58471Y-31417D01*
X58311Y-31385D01*
X57637Y-31385D01*
X57639Y-31376D01*
X57639Y-30497D01*
X57607Y-30337D01*
X57517Y-30202D01*
X57473Y-30172D01*
X57850Y-29795D01*
X57889Y-29890D01*
X58008Y-30010D01*
X58165Y-30074D01*
X58279Y-30075D01*
X60220Y-32015D01*
X60220Y-32050D01*
X60241Y-32157D01*
X60302Y-32247D01*
X60574Y-32520D01*
X60574Y-32774D01*
X60585Y-32799D01*
X60250Y-32799D01*
X60158Y-32837D01*
X60088Y-32908D01*
X60050Y-33000D01*
X60049Y-33099D01*
X60049Y-33899D01*
X60087Y-33991D01*
X60158Y-34061D01*
X60250Y-34099D01*
X60349Y-34100D01*
X60949Y-34100D01*
X61041Y-34062D01*
X61111Y-33991D01*
X61149Y-33899D01*
X61150Y-33800D01*
X61150Y-33294D01*
X61150Y-33294D01*
X61188Y-33237D01*
X61208Y-33207D01*
X61208Y-33207D01*
X61229Y-33100D01*
X61230Y-33100D01*
X61230Y-32923D01*
X61250Y-32903D01*
X61283Y-32937D01*
X61362Y-32969D01*
X61350Y-33000D01*
X61349Y-33099D01*
X61350Y-33337D01*
X61412Y-33400D01*
X61850Y-33400D01*
X61850Y-33392D01*
X61950Y-33392D01*
X61950Y-33400D01*
X61957Y-33400D01*
X61957Y-33500D01*
X61950Y-33500D01*
X61950Y-34037D01*
X62012Y-34100D01*
X62249Y-34100D01*
X62341Y-34062D01*
X62411Y-33991D01*
X62420Y-33972D01*
X62420Y-34149D01*
G54D10*
G36*
X62450Y-30824D02*
X62425Y-30824D01*
X62080Y-30824D01*
X62080Y-30750D01*
X62058Y-30642D01*
X62058Y-30642D01*
X62038Y-30612D01*
X61997Y-30552D01*
X61997Y-30552D01*
X61925Y-30479D01*
X61925Y-30225D01*
X61887Y-30133D01*
X61816Y-30063D01*
X61724Y-30025D01*
X61625Y-30024D01*
X61470Y-30024D01*
X60572Y-29126D01*
X60481Y-29066D01*
X60374Y-29044D01*
X60098Y-29044D01*
X60074Y-28986D01*
X60004Y-28916D01*
X59912Y-28877D01*
X59812Y-28877D01*
X58592Y-28877D01*
X58500Y-28915D01*
X58429Y-28986D01*
X58405Y-29044D01*
X57925Y-29044D01*
X57818Y-29066D01*
X57787Y-29086D01*
X57727Y-29126D01*
X56984Y-29870D01*
X56608Y-29870D01*
X56608Y-29472D01*
X56608Y-29078D01*
X56570Y-28986D01*
X56500Y-28916D01*
X56408Y-28877D01*
X56308Y-28877D01*
X55088Y-28877D01*
X54996Y-28915D01*
X54925Y-28986D01*
X54887Y-29078D01*
X54887Y-29177D01*
X54887Y-29571D01*
X54925Y-29663D01*
X54995Y-29733D01*
X55087Y-29771D01*
X55187Y-29771D01*
X56407Y-29771D01*
X56499Y-29733D01*
X56570Y-29663D01*
X56608Y-29571D01*
X56608Y-29472D01*
X56608Y-29870D01*
X54633Y-29870D01*
X54636Y-29866D01*
X54674Y-29774D01*
X54675Y-29675D01*
X54675Y-29225D01*
X54637Y-29133D01*
X54566Y-29063D01*
X54474Y-29025D01*
X54375Y-29024D01*
X54125Y-29024D01*
X54033Y-29062D01*
X54000Y-29096D01*
X53966Y-29062D01*
X53874Y-29024D01*
X53812Y-29025D01*
X53750Y-29087D01*
X53750Y-29450D01*
X53757Y-29450D01*
X53757Y-29550D01*
X53750Y-29550D01*
X53750Y-29912D01*
X53812Y-29975D01*
X53874Y-29975D01*
X53966Y-29937D01*
X53999Y-29903D01*
X54020Y-29923D01*
X54020Y-30150D01*
X54020Y-30172D01*
X54017Y-30173D01*
X53892Y-30112D01*
X53828Y-30162D01*
X53828Y-30887D01*
X53835Y-30887D01*
X53835Y-30987D01*
X53828Y-30987D01*
X53828Y-30994D01*
X53728Y-30994D01*
X53728Y-30987D01*
X53728Y-30887D01*
X53728Y-30162D01*
X53663Y-30112D01*
X53650Y-30119D01*
X53650Y-29912D01*
X53650Y-29550D01*
X53650Y-29450D01*
X53650Y-29087D01*
X53587Y-29025D01*
X53525Y-29024D01*
X53433Y-29062D01*
X53363Y-29133D01*
X53325Y-29225D01*
X53324Y-29324D01*
X53325Y-29387D01*
X53387Y-29450D01*
X53650Y-29450D01*
X53650Y-29550D01*
X53387Y-29550D01*
X53325Y-29612D01*
X53324Y-29675D01*
X53325Y-29774D01*
X53363Y-29866D01*
X53433Y-29937D01*
X53525Y-29975D01*
X53587Y-29975D01*
X53650Y-29912D01*
X53650Y-30119D01*
X53518Y-30183D01*
X53411Y-30308D01*
X53360Y-30464D01*
X53360Y-30887D01*
X53728Y-30887D01*
X53728Y-30987D01*
X53360Y-30987D01*
X53360Y-31385D01*
X52688Y-31385D01*
X52550Y-31413D01*
X52550Y-28760D01*
X53783Y-25800D01*
X54962Y-25800D01*
X54925Y-25836D01*
X54887Y-25928D01*
X54887Y-26027D01*
X54887Y-26421D01*
X54925Y-26513D01*
X54995Y-26583D01*
X55087Y-26622D01*
X55187Y-26622D01*
X56231Y-26622D01*
X54778Y-28075D01*
X54665Y-28074D01*
X54509Y-28139D01*
X54389Y-28258D01*
X54325Y-28415D01*
X54324Y-28584D01*
X54389Y-28740D01*
X54508Y-28860D01*
X54665Y-28924D01*
X54834Y-28925D01*
X54990Y-28860D01*
X55110Y-28741D01*
X55174Y-28584D01*
X55175Y-28470D01*
X57190Y-26455D01*
X58405Y-26455D01*
X58429Y-26513D01*
X58499Y-26583D01*
X58591Y-26622D01*
X58691Y-26622D01*
X59911Y-26622D01*
X60003Y-26584D01*
X60074Y-26513D01*
X60112Y-26421D01*
X60112Y-26322D01*
X60112Y-25928D01*
X60074Y-25836D01*
X60037Y-25800D01*
X61216Y-25800D01*
X62450Y-28760D01*
X62450Y-30824D01*
X62450Y-30824D01*
G37*
G54D23*
X62450Y-30824D02*
X62425Y-30824D01*
X62080Y-30824D01*
X62080Y-30750D01*
X62058Y-30642D01*
X62058Y-30642D01*
X62038Y-30612D01*
X61997Y-30552D01*
X61997Y-30552D01*
X61925Y-30479D01*
X61925Y-30225D01*
X61887Y-30133D01*
X61816Y-30063D01*
X61724Y-30025D01*
X61625Y-30024D01*
X61470Y-30024D01*
X60572Y-29126D01*
X60481Y-29066D01*
X60374Y-29044D01*
X60098Y-29044D01*
X60074Y-28986D01*
X60004Y-28916D01*
X59912Y-28877D01*
X59812Y-28877D01*
X58592Y-28877D01*
X58500Y-28915D01*
X58429Y-28986D01*
X58405Y-29044D01*
X57925Y-29044D01*
X57818Y-29066D01*
X57787Y-29086D01*
X57727Y-29126D01*
X56984Y-29870D01*
X56608Y-29870D01*
X56608Y-29472D01*
X56608Y-29078D01*
X56570Y-28986D01*
X56500Y-28916D01*
X56408Y-28877D01*
X56308Y-28877D01*
X55088Y-28877D01*
X54996Y-28915D01*
X54925Y-28986D01*
X54887Y-29078D01*
X54887Y-29177D01*
X54887Y-29571D01*
X54925Y-29663D01*
X54995Y-29733D01*
X55087Y-29771D01*
X55187Y-29771D01*
X56407Y-29771D01*
X56499Y-29733D01*
X56570Y-29663D01*
X56608Y-29571D01*
X56608Y-29472D01*
X56608Y-29870D01*
X54633Y-29870D01*
X54636Y-29866D01*
X54674Y-29774D01*
X54675Y-29675D01*
X54675Y-29225D01*
X54637Y-29133D01*
X54566Y-29063D01*
X54474Y-29025D01*
X54375Y-29024D01*
X54125Y-29024D01*
X54033Y-29062D01*
X54000Y-29096D01*
X53966Y-29062D01*
X53874Y-29024D01*
X53812Y-29025D01*
X53750Y-29087D01*
X53750Y-29450D01*
X53757Y-29450D01*
X53757Y-29550D01*
X53750Y-29550D01*
X53750Y-29912D01*
X53812Y-29975D01*
X53874Y-29975D01*
X53966Y-29937D01*
X53999Y-29903D01*
X54020Y-29923D01*
X54020Y-30150D01*
X54020Y-30172D01*
X54017Y-30173D01*
X53892Y-30112D01*
X53828Y-30162D01*
X53828Y-30887D01*
X53835Y-30887D01*
X53835Y-30987D01*
X53828Y-30987D01*
X53828Y-30994D01*
X53728Y-30994D01*
X53728Y-30987D01*
X53728Y-30887D01*
X53728Y-30162D01*
X53663Y-30112D01*
X53650Y-30119D01*
X53650Y-29912D01*
X53650Y-29550D01*
X53650Y-29450D01*
X53650Y-29087D01*
X53587Y-29025D01*
X53525Y-29024D01*
X53433Y-29062D01*
X53363Y-29133D01*
X53325Y-29225D01*
X53324Y-29324D01*
X53325Y-29387D01*
X53387Y-29450D01*
X53650Y-29450D01*
X53650Y-29550D01*
X53387Y-29550D01*
X53325Y-29612D01*
X53324Y-29675D01*
X53325Y-29774D01*
X53363Y-29866D01*
X53433Y-29937D01*
X53525Y-29975D01*
X53587Y-29975D01*
X53650Y-29912D01*
X53650Y-30119D01*
X53518Y-30183D01*
X53411Y-30308D01*
X53360Y-30464D01*
X53360Y-30887D01*
X53728Y-30887D01*
X53728Y-30987D01*
X53360Y-30987D01*
X53360Y-31385D01*
X52688Y-31385D01*
X52550Y-31413D01*
X52550Y-28760D01*
X53783Y-25800D01*
X54962Y-25800D01*
X54925Y-25836D01*
X54887Y-25928D01*
X54887Y-26027D01*
X54887Y-26421D01*
X54925Y-26513D01*
X54995Y-26583D01*
X55087Y-26622D01*
X55187Y-26622D01*
X56231Y-26622D01*
X54778Y-28075D01*
X54665Y-28074D01*
X54509Y-28139D01*
X54389Y-28258D01*
X54325Y-28415D01*
X54324Y-28584D01*
X54389Y-28740D01*
X54508Y-28860D01*
X54665Y-28924D01*
X54834Y-28925D01*
X54990Y-28860D01*
X55110Y-28741D01*
X55174Y-28584D01*
X55175Y-28470D01*
X57190Y-26455D01*
X58405Y-26455D01*
X58429Y-26513D01*
X58499Y-26583D01*
X58591Y-26622D01*
X58691Y-26622D01*
X59911Y-26622D01*
X60003Y-26584D01*
X60074Y-26513D01*
X60112Y-26421D01*
X60112Y-26322D01*
X60112Y-25928D01*
X60074Y-25836D01*
X60037Y-25800D01*
X61216Y-25800D01*
X62450Y-28760D01*
X62450Y-30824D01*
M02*
