G04 (created by PCBNEW (2013-07-07 BZR 4022)-stable) date 6/10/2015 11:43:32 PM*
%MOIN*%
G04 Gerber Fmt 3.4, Leading zero omitted, Abs format*
%FSLAX34Y34*%
G01*
G70*
G90*
G04 APERTURE LIST*
%ADD10C,0.00590551*%
%ADD11R,0.19685X0.19685*%
%ADD12R,0.208661X0.208661*%
%ADD13C,0.035*%
%ADD14C,0.006*%
%ADD15C,0.01*%
G04 APERTURE END LIST*
G54D10*
G54D11*
X57250Y-33250D03*
G54D12*
X57250Y-38840D03*
G54D11*
X57250Y-27659D03*
G54D13*
X58250Y-29650D03*
X60000Y-36250D03*
X58750Y-36250D03*
X61500Y-35750D03*
X58750Y-35750D03*
X58850Y-34750D03*
X62200Y-32500D03*
X58850Y-34300D03*
X61250Y-31000D03*
X60100Y-37750D03*
X55950Y-35250D03*
X55400Y-32050D03*
X54750Y-28500D03*
G54D14*
X57250Y-28650D02*
X57250Y-27659D01*
X58250Y-29650D02*
X57250Y-28650D01*
X58750Y-36250D02*
X60000Y-36250D01*
X58750Y-35750D02*
X61500Y-35750D01*
X59950Y-34750D02*
X58850Y-34750D01*
X62200Y-32500D02*
X59950Y-34750D01*
X58850Y-33400D02*
X58850Y-34300D01*
X61250Y-31000D02*
X58850Y-33400D01*
X58450Y-37750D02*
X60100Y-37750D01*
X55950Y-35250D02*
X58450Y-37750D01*
X55400Y-29150D02*
X55400Y-32050D01*
X54750Y-28500D02*
X55400Y-29150D01*
G54D10*
G36*
X62450Y-37239D02*
X61925Y-38376D01*
X61925Y-35665D01*
X61860Y-35509D01*
X61741Y-35389D01*
X61584Y-35325D01*
X61415Y-35324D01*
X61259Y-35389D01*
X61178Y-35470D01*
X59071Y-35470D01*
X58991Y-35389D01*
X58834Y-35325D01*
X58665Y-35324D01*
X58509Y-35389D01*
X58389Y-35508D01*
X58325Y-35665D01*
X58324Y-35834D01*
X58389Y-35990D01*
X58398Y-35999D01*
X58389Y-36008D01*
X58325Y-36165D01*
X58324Y-36334D01*
X58389Y-36490D01*
X58508Y-36610D01*
X58665Y-36674D01*
X58834Y-36675D01*
X58990Y-36610D01*
X59071Y-36530D01*
X59678Y-36530D01*
X59758Y-36610D01*
X59915Y-36674D01*
X60084Y-36675D01*
X60240Y-36610D01*
X60360Y-36491D01*
X60424Y-36334D01*
X60425Y-36165D01*
X60368Y-36030D01*
X61178Y-36030D01*
X61258Y-36110D01*
X61415Y-36174D01*
X61584Y-36175D01*
X61740Y-36110D01*
X61860Y-35991D01*
X61924Y-35834D01*
X61925Y-35665D01*
X61925Y-38376D01*
X60968Y-40450D01*
X57707Y-40450D01*
X57571Y-40422D01*
X57570Y-40422D01*
X57464Y-40422D01*
X57326Y-40450D01*
X54032Y-40450D01*
X53325Y-38800D01*
X55956Y-38800D01*
X55956Y-39933D01*
X55994Y-40025D01*
X56064Y-40095D01*
X56156Y-40133D01*
X56256Y-40133D01*
X58342Y-40133D01*
X58434Y-40095D01*
X58505Y-40025D01*
X58543Y-39933D01*
X58543Y-39834D01*
X58543Y-38030D01*
X59778Y-38030D01*
X59858Y-38110D01*
X60015Y-38174D01*
X60184Y-38175D01*
X60340Y-38110D01*
X60460Y-37991D01*
X60524Y-37834D01*
X60525Y-37665D01*
X60460Y-37509D01*
X60341Y-37389D01*
X60184Y-37325D01*
X60015Y-37324D01*
X59859Y-37389D01*
X59778Y-37470D01*
X58565Y-37470D01*
X57200Y-36104D01*
X57200Y-34421D01*
X57200Y-33300D01*
X57200Y-33200D01*
X57200Y-32078D01*
X57137Y-32015D01*
X56315Y-32015D01*
X56215Y-32015D01*
X56123Y-32053D01*
X56053Y-32124D01*
X56015Y-32216D01*
X56015Y-33137D01*
X56078Y-33200D01*
X57200Y-33200D01*
X57200Y-33300D01*
X56078Y-33300D01*
X56015Y-33362D01*
X56015Y-34283D01*
X56053Y-34375D01*
X56123Y-34446D01*
X56215Y-34484D01*
X56315Y-34484D01*
X57137Y-34484D01*
X57200Y-34421D01*
X57200Y-36104D01*
X56374Y-35278D01*
X56375Y-35165D01*
X56310Y-35009D01*
X56191Y-34889D01*
X56034Y-34825D01*
X55865Y-34824D01*
X55825Y-34841D01*
X55825Y-31965D01*
X55760Y-31809D01*
X55680Y-31728D01*
X55680Y-29150D01*
X55658Y-29042D01*
X55658Y-29042D01*
X55638Y-29012D01*
X55597Y-28952D01*
X55597Y-28952D01*
X55174Y-28528D01*
X55175Y-28415D01*
X55110Y-28259D01*
X54991Y-28139D01*
X54834Y-28075D01*
X54665Y-28074D01*
X54509Y-28139D01*
X54389Y-28258D01*
X54325Y-28415D01*
X54324Y-28584D01*
X54389Y-28740D01*
X54508Y-28860D01*
X54665Y-28924D01*
X54779Y-28925D01*
X55120Y-29265D01*
X55120Y-31728D01*
X55039Y-31808D01*
X54975Y-31965D01*
X54974Y-32134D01*
X55039Y-32290D01*
X55158Y-32410D01*
X55315Y-32474D01*
X55484Y-32475D01*
X55640Y-32410D01*
X55760Y-32291D01*
X55824Y-32134D01*
X55825Y-31965D01*
X55825Y-34841D01*
X55709Y-34889D01*
X55589Y-35008D01*
X55525Y-35165D01*
X55525Y-35200D01*
X52550Y-35200D01*
X52550Y-28760D01*
X53783Y-25800D01*
X61216Y-25800D01*
X62450Y-28760D01*
X62450Y-32148D01*
X62441Y-32139D01*
X62284Y-32075D01*
X62115Y-32074D01*
X61959Y-32139D01*
X61839Y-32258D01*
X61775Y-32415D01*
X61774Y-32529D01*
X59834Y-34470D01*
X59239Y-34470D01*
X59274Y-34384D01*
X59275Y-34215D01*
X59210Y-34059D01*
X59130Y-33978D01*
X59130Y-33515D01*
X61221Y-31424D01*
X61334Y-31425D01*
X61490Y-31360D01*
X61610Y-31241D01*
X61674Y-31084D01*
X61675Y-30915D01*
X61610Y-30759D01*
X61491Y-30639D01*
X61334Y-30575D01*
X61165Y-30574D01*
X61009Y-30639D01*
X60889Y-30758D01*
X60825Y-30915D01*
X60824Y-31029D01*
X58675Y-33178D01*
X58675Y-29565D01*
X58610Y-29409D01*
X58491Y-29289D01*
X58334Y-29225D01*
X58220Y-29224D01*
X57889Y-28893D01*
X58283Y-28893D01*
X58375Y-28855D01*
X58446Y-28785D01*
X58484Y-28693D01*
X58484Y-28594D01*
X58484Y-26625D01*
X58446Y-26533D01*
X58376Y-26463D01*
X58284Y-26425D01*
X58184Y-26425D01*
X56216Y-26425D01*
X56124Y-26463D01*
X56053Y-26533D01*
X56015Y-26625D01*
X56015Y-26724D01*
X56015Y-28693D01*
X56053Y-28785D01*
X56123Y-28855D01*
X56215Y-28893D01*
X56315Y-28893D01*
X57097Y-28893D01*
X57825Y-29621D01*
X57824Y-29734D01*
X57889Y-29890D01*
X58008Y-30010D01*
X58165Y-30074D01*
X58334Y-30075D01*
X58490Y-30010D01*
X58610Y-29891D01*
X58674Y-29734D01*
X58675Y-29565D01*
X58675Y-33178D01*
X58652Y-33202D01*
X58591Y-33292D01*
X58570Y-33400D01*
X58570Y-33978D01*
X58489Y-34058D01*
X58484Y-34072D01*
X58484Y-32216D01*
X58446Y-32124D01*
X58376Y-32053D01*
X58284Y-32015D01*
X58184Y-32015D01*
X57362Y-32015D01*
X57300Y-32078D01*
X57300Y-33200D01*
X58421Y-33200D01*
X58484Y-33137D01*
X58484Y-32216D01*
X58484Y-34072D01*
X58484Y-34072D01*
X58484Y-33362D01*
X58421Y-33300D01*
X57300Y-33300D01*
X57300Y-34421D01*
X57362Y-34484D01*
X58184Y-34484D01*
X58284Y-34484D01*
X58376Y-34446D01*
X58428Y-34393D01*
X58483Y-34525D01*
X58425Y-34665D01*
X58424Y-34834D01*
X58489Y-34990D01*
X58608Y-35110D01*
X58765Y-35174D01*
X58934Y-35175D01*
X59090Y-35110D01*
X59171Y-35030D01*
X59950Y-35030D01*
X60057Y-35008D01*
X60057Y-35008D01*
X60147Y-34947D01*
X62171Y-32924D01*
X62284Y-32925D01*
X62440Y-32860D01*
X62450Y-32850D01*
X62450Y-37239D01*
X62450Y-37239D01*
G37*
G54D15*
X62450Y-37239D02*
X61925Y-38376D01*
X61925Y-35665D01*
X61860Y-35509D01*
X61741Y-35389D01*
X61584Y-35325D01*
X61415Y-35324D01*
X61259Y-35389D01*
X61178Y-35470D01*
X59071Y-35470D01*
X58991Y-35389D01*
X58834Y-35325D01*
X58665Y-35324D01*
X58509Y-35389D01*
X58389Y-35508D01*
X58325Y-35665D01*
X58324Y-35834D01*
X58389Y-35990D01*
X58398Y-35999D01*
X58389Y-36008D01*
X58325Y-36165D01*
X58324Y-36334D01*
X58389Y-36490D01*
X58508Y-36610D01*
X58665Y-36674D01*
X58834Y-36675D01*
X58990Y-36610D01*
X59071Y-36530D01*
X59678Y-36530D01*
X59758Y-36610D01*
X59915Y-36674D01*
X60084Y-36675D01*
X60240Y-36610D01*
X60360Y-36491D01*
X60424Y-36334D01*
X60425Y-36165D01*
X60368Y-36030D01*
X61178Y-36030D01*
X61258Y-36110D01*
X61415Y-36174D01*
X61584Y-36175D01*
X61740Y-36110D01*
X61860Y-35991D01*
X61924Y-35834D01*
X61925Y-35665D01*
X61925Y-38376D01*
X60968Y-40450D01*
X57707Y-40450D01*
X57571Y-40422D01*
X57570Y-40422D01*
X57464Y-40422D01*
X57326Y-40450D01*
X54032Y-40450D01*
X53325Y-38800D01*
X55956Y-38800D01*
X55956Y-39933D01*
X55994Y-40025D01*
X56064Y-40095D01*
X56156Y-40133D01*
X56256Y-40133D01*
X58342Y-40133D01*
X58434Y-40095D01*
X58505Y-40025D01*
X58543Y-39933D01*
X58543Y-39834D01*
X58543Y-38030D01*
X59778Y-38030D01*
X59858Y-38110D01*
X60015Y-38174D01*
X60184Y-38175D01*
X60340Y-38110D01*
X60460Y-37991D01*
X60524Y-37834D01*
X60525Y-37665D01*
X60460Y-37509D01*
X60341Y-37389D01*
X60184Y-37325D01*
X60015Y-37324D01*
X59859Y-37389D01*
X59778Y-37470D01*
X58565Y-37470D01*
X57200Y-36104D01*
X57200Y-34421D01*
X57200Y-33300D01*
X57200Y-33200D01*
X57200Y-32078D01*
X57137Y-32015D01*
X56315Y-32015D01*
X56215Y-32015D01*
X56123Y-32053D01*
X56053Y-32124D01*
X56015Y-32216D01*
X56015Y-33137D01*
X56078Y-33200D01*
X57200Y-33200D01*
X57200Y-33300D01*
X56078Y-33300D01*
X56015Y-33362D01*
X56015Y-34283D01*
X56053Y-34375D01*
X56123Y-34446D01*
X56215Y-34484D01*
X56315Y-34484D01*
X57137Y-34484D01*
X57200Y-34421D01*
X57200Y-36104D01*
X56374Y-35278D01*
X56375Y-35165D01*
X56310Y-35009D01*
X56191Y-34889D01*
X56034Y-34825D01*
X55865Y-34824D01*
X55825Y-34841D01*
X55825Y-31965D01*
X55760Y-31809D01*
X55680Y-31728D01*
X55680Y-29150D01*
X55658Y-29042D01*
X55658Y-29042D01*
X55638Y-29012D01*
X55597Y-28952D01*
X55597Y-28952D01*
X55174Y-28528D01*
X55175Y-28415D01*
X55110Y-28259D01*
X54991Y-28139D01*
X54834Y-28075D01*
X54665Y-28074D01*
X54509Y-28139D01*
X54389Y-28258D01*
X54325Y-28415D01*
X54324Y-28584D01*
X54389Y-28740D01*
X54508Y-28860D01*
X54665Y-28924D01*
X54779Y-28925D01*
X55120Y-29265D01*
X55120Y-31728D01*
X55039Y-31808D01*
X54975Y-31965D01*
X54974Y-32134D01*
X55039Y-32290D01*
X55158Y-32410D01*
X55315Y-32474D01*
X55484Y-32475D01*
X55640Y-32410D01*
X55760Y-32291D01*
X55824Y-32134D01*
X55825Y-31965D01*
X55825Y-34841D01*
X55709Y-34889D01*
X55589Y-35008D01*
X55525Y-35165D01*
X55525Y-35200D01*
X52550Y-35200D01*
X52550Y-28760D01*
X53783Y-25800D01*
X61216Y-25800D01*
X62450Y-28760D01*
X62450Y-32148D01*
X62441Y-32139D01*
X62284Y-32075D01*
X62115Y-32074D01*
X61959Y-32139D01*
X61839Y-32258D01*
X61775Y-32415D01*
X61774Y-32529D01*
X59834Y-34470D01*
X59239Y-34470D01*
X59274Y-34384D01*
X59275Y-34215D01*
X59210Y-34059D01*
X59130Y-33978D01*
X59130Y-33515D01*
X61221Y-31424D01*
X61334Y-31425D01*
X61490Y-31360D01*
X61610Y-31241D01*
X61674Y-31084D01*
X61675Y-30915D01*
X61610Y-30759D01*
X61491Y-30639D01*
X61334Y-30575D01*
X61165Y-30574D01*
X61009Y-30639D01*
X60889Y-30758D01*
X60825Y-30915D01*
X60824Y-31029D01*
X58675Y-33178D01*
X58675Y-29565D01*
X58610Y-29409D01*
X58491Y-29289D01*
X58334Y-29225D01*
X58220Y-29224D01*
X57889Y-28893D01*
X58283Y-28893D01*
X58375Y-28855D01*
X58446Y-28785D01*
X58484Y-28693D01*
X58484Y-28594D01*
X58484Y-26625D01*
X58446Y-26533D01*
X58376Y-26463D01*
X58284Y-26425D01*
X58184Y-26425D01*
X56216Y-26425D01*
X56124Y-26463D01*
X56053Y-26533D01*
X56015Y-26625D01*
X56015Y-26724D01*
X56015Y-28693D01*
X56053Y-28785D01*
X56123Y-28855D01*
X56215Y-28893D01*
X56315Y-28893D01*
X57097Y-28893D01*
X57825Y-29621D01*
X57824Y-29734D01*
X57889Y-29890D01*
X58008Y-30010D01*
X58165Y-30074D01*
X58334Y-30075D01*
X58490Y-30010D01*
X58610Y-29891D01*
X58674Y-29734D01*
X58675Y-29565D01*
X58675Y-33178D01*
X58652Y-33202D01*
X58591Y-33292D01*
X58570Y-33400D01*
X58570Y-33978D01*
X58489Y-34058D01*
X58484Y-34072D01*
X58484Y-32216D01*
X58446Y-32124D01*
X58376Y-32053D01*
X58284Y-32015D01*
X58184Y-32015D01*
X57362Y-32015D01*
X57300Y-32078D01*
X57300Y-33200D01*
X58421Y-33200D01*
X58484Y-33137D01*
X58484Y-32216D01*
X58484Y-34072D01*
X58484Y-34072D01*
X58484Y-33362D01*
X58421Y-33300D01*
X57300Y-33300D01*
X57300Y-34421D01*
X57362Y-34484D01*
X58184Y-34484D01*
X58284Y-34484D01*
X58376Y-34446D01*
X58428Y-34393D01*
X58483Y-34525D01*
X58425Y-34665D01*
X58424Y-34834D01*
X58489Y-34990D01*
X58608Y-35110D01*
X58765Y-35174D01*
X58934Y-35175D01*
X59090Y-35110D01*
X59171Y-35030D01*
X59950Y-35030D01*
X60057Y-35008D01*
X60057Y-35008D01*
X60147Y-34947D01*
X62171Y-32924D01*
X62284Y-32925D01*
X62440Y-32860D01*
X62450Y-32850D01*
X62450Y-37239D01*
M02*
