G04 (created by PCBNEW (2013-07-07 BZR 4022)-stable) date 6/10/2015 11:43:32 PM*
%MOIN*%
G04 Gerber Fmt 3.4, Leading zero omitted, Abs format*
%FSLAX34Y34*%
G01*
G70*
G90*
G04 APERTURE LIST*
%ADD10C,0.00590551*%
%ADD11R,0.0394X0.0315*%
%ADD12R,0.0244724X0.015811*%
%ADD13R,0.045X0.025*%
%ADD14R,0.025X0.045*%
%ADD15R,0.04X0.07*%
%ADD16R,0.0472X0.0472*%
%ADD17R,0.122047X0.0393701*%
%ADD18O,0.1181X0.0335*%
%ADD19O,0.0335X0.1181*%
%ADD20R,0.315X0.2165*%
%ADD21R,0.06X0.08*%
G04 APERTURE END LIST*
G54D10*
G54D11*
X58817Y-39500D03*
X59683Y-39125D03*
X59683Y-39875D03*
G54D12*
X61098Y-31303D03*
X61098Y-31500D03*
X61098Y-31696D03*
X61401Y-31696D03*
X61401Y-31500D03*
X61401Y-31303D03*
G54D13*
X59250Y-33800D03*
X59250Y-33200D03*
G54D14*
X54300Y-29500D03*
X53700Y-29500D03*
G54D13*
X59250Y-37200D03*
X59250Y-37800D03*
X62250Y-31200D03*
X62250Y-31800D03*
G54D14*
X60950Y-32500D03*
X61550Y-32500D03*
X61550Y-30500D03*
X60950Y-30500D03*
G54D15*
X60750Y-34750D03*
X62250Y-34750D03*
X60750Y-35750D03*
X62250Y-35750D03*
X60750Y-36750D03*
X62250Y-36750D03*
X60750Y-37750D03*
X62250Y-37750D03*
X60750Y-38750D03*
X62250Y-38750D03*
G54D16*
X57087Y-39500D03*
X57913Y-39500D03*
G54D17*
X59251Y-29324D03*
X59251Y-26175D03*
X55748Y-29324D03*
X55748Y-26175D03*
G54D18*
X57872Y-37709D03*
X57872Y-37217D03*
X57872Y-36724D03*
X57872Y-36232D03*
X57872Y-35740D03*
X57872Y-35248D03*
X57872Y-34756D03*
X57872Y-34264D03*
X57872Y-33772D03*
X57872Y-33280D03*
X57872Y-32787D03*
X57872Y-32295D03*
X57872Y-31803D03*
G54D19*
X57222Y-30937D03*
X56730Y-30937D03*
X56238Y-30937D03*
X55746Y-30937D03*
X55254Y-30937D03*
X54762Y-30937D03*
X54270Y-30937D03*
X53778Y-30937D03*
G54D18*
X53128Y-31803D03*
X53128Y-32295D03*
X53128Y-32787D03*
X53128Y-33280D03*
X53128Y-33772D03*
X53128Y-34264D03*
X53128Y-34756D03*
X53128Y-35248D03*
X53128Y-35740D03*
G54D20*
X53925Y-37000D03*
G54D14*
X55450Y-39000D03*
X56050Y-39000D03*
X55450Y-40000D03*
X56050Y-40000D03*
G54D21*
X60600Y-33450D03*
X61900Y-33450D03*
M02*
